<?xml version="1.0" encoding="utf-8"?>
<svg id="Layer_1" style="enable-background:new 0 0 124 124;" version="1.1" viewBox="0 0 100 100" xmlns="http://www.w3.org/2000/svg">
  <style type="text/css">
	.st0{fill:#E73530;}
	.st1{fill:#0066B2;}
	.st2{fill:#F9A533;}
	.st3{fill:#336699;}
	.st4{fill:#003366;}
	.st5{fill:#203C73;}
	.st6{fill:#EE3A3F;}
	.st7{fill:#0067B2;}
	.st8{fill:#FAAC18;}
	.st9{fill:#6AB845;}
	.st10{fill:#231F20;}
	.st11{fill-rule:evenodd;clip-rule:evenodd;fill:#231F20;}
	.st12{fill-rule:evenodd;clip-rule:evenodd;fill:#008060;}
	.st13{fill:#007CC3;}
	.st14{fill:#009DDD;}
	.st15{fill:#FFFFFF;}
	.st16{fill-rule:evenodd;clip-rule:evenodd;fill:#FF9900;}
	.st17{fill-rule:evenodd;clip-rule:evenodd;}
	.st18{fill:#862165;}
	.st19{fill:#58595B;}
	.st20{fill-rule:evenodd;clip-rule:evenodd;fill:#9A9FB8;}
	.st21{fill:#00A551;}
	.st22{fill:#0071BB;}
	.st23{fill:#EC1C24;}
	.st24{fill:#EC1C2E;}
	.st25{fill:#0084C4;}
	.st26{fill:none;stroke:#FFFFFF;stroke-width:0.215;}
	.st27{fill-rule:evenodd;clip-rule:evenodd;fill:#FAA929;}
	.st28{fill-rule:evenodd;clip-rule:evenodd;fill:#045EA0;}
	.st29{fill:url(#SVGID_1_);}
	.st30{fill:url(#SVGID_2_);}
	.st31{fill:url(#SVGID_3_);}
	.st32{fill:url(#SVGID_4_);}
	.st33{fill:#273D49;}
	.st34{fill:#48606D;}
	.st35{fill:#8BB43F;}
	.st36{fill-rule:evenodd;clip-rule:evenodd;fill:#FBB231;}
	.st37{fill-rule:evenodd;clip-rule:evenodd;fill:#EC1C2E;}
	.st38{fill-rule:evenodd;clip-rule:evenodd;fill:#FFFFFF;}
	.st39{fill:none;stroke:#FFFFFF;stroke-width:0.216;stroke-miterlimit:2.6131;}
	.st40{fill-rule:evenodd;clip-rule:evenodd;fill:#121212;}
	.st41{fill:#004A97;}
	.st42{fill:#0078A9;}
	.st43{fill:url(#SVGID_5_);}
	.st44{fill:#001722;}
</style>
  <g transform="matrix(1, 0, 0, 0.996678, -12, -8.338889)">
    <g>
      <g>
        <path class="st16" d="M74,72c-5.8,4.3-14.2,6.6-21.5,6.6c-10.2,0-19.3-3.8-26.2-10c-0.5-0.5-0.1-1.2,0.6-0.8     c7.5,4.3,16.7,7,26.3,7c6.4,0,13.5-1.3,20-4.1C74.2,70.3,75,71.3,74,72z"/>
        <path class="st16" d="M76.5,69.3c-0.7-1-4.9-0.5-6.8-0.2c-0.6,0.1-0.7-0.4-0.1-0.8c3.3-2.3,8.8-1.7,9.4-0.9     c0.6,0.8-0.2,6.3-3.3,8.9c-0.5,0.4-0.9,0.2-0.7-0.3C75.6,74.1,77.2,70.2,76.5,69.3z"/>
      </g>
      <path class="st17" d="M69.8,51.7v-2.3c0-0.3,0.3-0.6,0.6-0.6l10.2,0c0.3,0,0.6,0.2,0.6,0.6l0,1.9c0,0.3-0.3,0.8-0.8,1.4l-5.3,7.5    c2,0,4,0.2,5.8,1.2c0.4,0.2,0.5,0.6,0.5,0.9v2.4c0,0.3-0.4,0.7-0.7,0.5c-3.1-1.6-7.3-1.8-10.7,0c-0.4,0.2-0.7-0.2-0.7-0.5v-2.3    c0-0.4,0-1,0.4-1.6l6.1-8.8l-5.3,0C70.1,52.3,69.8,52.1,69.8,51.7z"/>
      <path class="st17" d="M32.7,65.9h-3.1c-0.3,0-0.5-0.2-0.6-0.5l0-15.9c0-0.3,0.3-0.6,0.6-0.6l2.9,0c0.3,0,0.5,0.2,0.6,0.5v2.1h0.1    c0.8-2,2.2-2.9,4.1-2.9c1.9,0,3.1,0.9,4,2.9c0.8-2,2.5-2.9,4.3-2.9c1.3,0,2.7,0.5,3.6,1.7c1,1.3,0.8,3.3,0.8,5l0,10    c0,0.3-0.3,0.6-0.6,0.6h-3.1c-0.3,0-0.6-0.3-0.6-0.6l0-8.4c0-0.7,0.1-2.3-0.1-3c-0.2-1.1-0.9-1.4-1.8-1.4c-0.8,0-1.5,0.5-1.8,1.3    c-0.3,0.8-0.3,2.1-0.3,3v8.4c0,0.3-0.3,0.6-0.6,0.6h-3.1c-0.3,0-0.6-0.3-0.6-0.6l0-8.4c0-1.8,0.3-4.4-1.9-4.4    c-2.2,0-2.1,2.5-2.1,4.4l0,8.4C33.3,65.7,33,65.9,32.7,65.9z"/>
      <path class="st17" d="M89.9,48.6c4.6,0,7.1,3.9,7.1,9c0,4.8-2.7,8.7-7.1,8.7c-4.5,0-7-3.9-7-8.9C82.9,52.5,85.4,48.6,89.9,48.6z     M89.9,51.9c-2.3,0-2.4,3.1-2.4,5c0,1.9,0,6.1,2.4,6.1c2.4,0,2.5-3.3,2.5-5.4c0-1.3-0.1-2.9-0.5-4.2    C91.6,52.3,90.9,51.9,89.9,51.9z"/>
      <path class="st17" d="M102.9,65.9h-3.1c-0.3,0-0.6-0.3-0.6-0.6l0-15.9c0-0.3,0.3-0.5,0.6-0.5l2.9,0c0.3,0,0.5,0.2,0.6,0.4v2.4h0.1    c0.9-2.2,2.1-3.2,4.2-3.2c1.4,0,2.7,0.5,3.6,1.9c0.8,1.3,0.8,3.4,0.8,4.9v10c0,0.3-0.3,0.5-0.6,0.5h-3.1c-0.3,0-0.5-0.2-0.6-0.5    v-8.6c0-1.7,0.2-4.3-1.9-4.3c-0.8,0-1.4,0.5-1.8,1.3c-0.4,1-0.5,1.9-0.5,3v8.6C103.5,65.7,103.3,65.9,102.9,65.9z"/>
      <path class="st17" d="M61.7,58.3c0,1.2,0,2.2-0.6,3.3C60.6,62.5,59.8,63,59,63c-1.2,0-1.9-0.9-1.9-2.2c0-2.6,2.4-3.1,4.6-3.1V58.3    z M64.8,65.9c-0.2,0.2-0.5,0.2-0.7,0.1c-1-0.9-1.2-1.3-1.8-2.1c-1.7,1.7-2.9,2.2-5.1,2.2c-2.6,0-4.6-1.6-4.6-4.8    c0-2.5,1.4-4.2,3.3-5.1c1.7-0.7,4-0.9,5.8-1.1v-0.4c0-0.7,0.1-1.6-0.4-2.2c-0.4-0.6-1.1-0.8-1.7-0.8c-1.2,0-2.2,0.6-2.5,1.9    c-0.1,0.3-0.3,0.6-0.5,0.6l-3-0.3c-0.3-0.1-0.5-0.3-0.5-0.6c0.7-3.6,4-4.7,6.9-4.7c1.5,0,3.5,0.4,4.7,1.5c1.5,1.4,1.4,3.3,1.4,5.3    v4.8c0,1.5,0.6,2.1,1.2,2.9c0.2,0.3,0.2,0.6,0,0.8C66.6,64.4,65.4,65.3,64.8,65.9L64.8,65.9z"/>
      <path class="st17" d="M21.1,58.3c0,1.2,0,2.2-0.6,3.3C20,62.5,19.3,63,18.4,63c-1.2,0-1.9-0.9-1.9-2.2c0-2.6,2.4-3.1,4.6-3.1V58.3    z M24.2,65.9c-0.2,0.2-0.5,0.2-0.7,0.1c-1-0.9-1.2-1.3-1.8-2.1c-1.7,1.7-2.9,2.2-5.1,2.2c-2.6,0-4.6-1.6-4.6-4.8    c0-2.5,1.4-4.2,3.3-5.1c1.7-0.7,4-0.9,5.8-1.1v-0.4c0-0.7,0.1-1.6-0.4-2.2c-0.4-0.6-1.1-0.8-1.7-0.8c-1.2,0-2.2,0.6-2.5,1.9    c-0.1,0.3-0.3,0.6-0.5,0.6l-3-0.3c-0.3-0.1-0.5-0.3-0.5-0.6c0.7-3.6,4-4.7,6.9-4.7c1.5,0,3.5,0.4,4.7,1.5c1.5,1.4,1.4,3.3,1.4,5.3    v4.8c0,1.5,0.6,2.1,1.2,2.9c0.2,0.3,0.2,0.6,0,0.8C26,64.4,24.9,65.3,24.2,65.9L24.2,65.9z"/>
    </g>
  </g>
</svg>
